<svg aria-hidden="true" style="position: absolute; width: 0; height: 0; overflow: hidden;" version="1.1" xmlns="http://www.w3.org/2000/svg" xmlns:xlink="http://www.w3.org/1999/xlink">
<defs>
<symbol id="gmail" viewBox="0 0 32 32">
<path fill="#273b7a" style="fill: var(--color1, #273b7a)" d="M32 16c0 8.837-7.163 16-16 16s-16-7.163-16-16c0-8.837 7.163-16 16-16s16 7.163 16 16z"></path>
<path fill="#121149" style="fill: var(--color2, #121149)" d="M19.278 31.663c6.202-1.291 11.087-6.173 12.383-12.373l-8.251-8.269-9.273 6.312 1.101 1.101-6.665 2.527 10.705 10.702z"></path>
<path fill="#000" style="fill: var(--color3, #000)" d="M22.409 10.595h-12.817c-0.767 0-1.395 0.628-1.395 1.395v8.020c0 0.766 0.627 1.395 1.395 1.395h12.817c0.767 0 1.395-0.628 1.395-1.395v-8.020c0-0.767-0.628-1.395-1.395-1.395z"></path>
<path fill="#b5b4b0" style="fill: var(--color4, #b5b4b0)" d="M15.942 18.112l-5.81 3.146 0.009 0.146 5.868-3.163z"></path>
<path fill="#b5b4b0" style="fill: var(--color4, #b5b4b0)" d="M22.527 11.929l-3.723 2.867-2.794 3.446 5.682 3.163h0.717c0.515 0 0.966-0.283 1.208-0.702l-0.481-3.196-0.609-5.579z"></path>
<path fill="#dd4b40" style="fill: var(--color5, #dd4b40)" d="M16.010 18.242l7.794-6.034v-0.218c0-0.767-0.627-1.395-1.395-1.395h-0.31l-5.903 5.039-6.141-5.039h-0.463c-0.767 0-1.395 0.628-1.395 1.395v8.020c0 0.766 0.627 1.395 1.395 1.395h0.55v-7.821l5.868 4.658z"></path>
<path fill="#a43026" style="fill: var(--color6, #a43026)" d="M23.803 20.010v-7.803l-2.112 1.635v7.562h0.717c0.767 0 1.395-0.628 1.395-1.395z"></path>
</symbol>
<symbol id="github" viewBox="0 0 32 32">
<path d="M16 0c8.837 0 16 7.344 16 16.405 0 7.246-4.579 13.394-10.933 15.565-0.811 0.162-1.099-0.35-1.099-0.787 0-0.541 0.019-2.307 0.019-4.502 0-1.53-0.512-2.528-1.086-3.037 3.563-0.406 7.307-1.794 7.307-8.094 0-1.792-0.621-3.254-1.648-4.403 0.166-0.414 0.715-2.083-0.157-4.342 0 0-1.341-0.44-4.395 1.682-1.278-0.363-2.648-0.546-4.008-0.552-1.36 0.006-2.728 0.189-4.005 0.552-3.058-2.122-4.402-1.682-4.402-1.682-0.869 2.259-0.32 3.928-0.155 4.342-1.022 1.149-1.648 2.611-1.648 4.403 0 6.285 3.736 7.693 7.29 8.107-0.458 0.41-0.872 1.133-1.016 2.194-0.912 0.419-3.229 1.144-4.656-1.363 0 0-0.846-1.576-2.453-1.691 0 0-1.56-0.021-0.109 0.997 0 0 1.048 0.504 1.776 2.4 0 0 0.939 2.928 5.39 1.936 0.008 1.371 0.022 2.664 0.022 3.054 0 0.434-0.294 0.941-1.093 0.789-6.358-2.168-10.942-8.318-10.942-15.566 0-9.061 7.165-16.405 16-16.405z"></path>
</symbol>
<symbol id="linkedin" viewBox="0 0 32 32">
<path fill="#1275b1" style="fill: var(--color7, #1275b1)" d="M16 2c7.732 0 14 6.268 14 14s-6.268 14-14 14c-7.732 0-14-6.268-14-14s6.268-14 14-14z"></path>
<path fill="#fff" style="fill: var(--color8, #fff)" d="M12.619 9.692c0 0.935-0.81 1.692-1.809 1.692s-1.809-0.758-1.809-1.692 0.81-1.692 1.809-1.692c0.999 0 1.809 0.758 1.809 1.692z"></path>
<path fill="#fff" style="fill: var(--color8, #fff)" d="M9.247 12.628h3.093v9.372h-3.093v-9.372z"></path>
<path fill="#fff" style="fill: var(--color8, #fff)" d="M17.32 12.628h-3.093v9.372h3.093c0 0 0-2.95 0-4.795 0-1.107 0.378-2.219 1.887-2.219 1.705 0 1.695 1.449 1.687 2.572-0.010 1.467 0.014 2.965 0.014 4.443h3.093v-4.946c-0.026-3.158-0.849-4.614-3.557-4.614-1.608 0-2.605 0.73-3.124 1.39v-1.202z"></path>
</symbol>
</defs>
</svg>
